<svg width="100" height="106" viewBox="0 0 100 106" fill="none" xmlns="http://www.w3.org/2000/svg">
<path d="M49.4399 11.5487C48.9871 11.4732 45.4956 9.20684 45.4956 9.20684C42.6703 8.07673 38.7314 9.00298 35.6022 9.00298H33.028C31.9228 9.00298 31.5861 8.71247 30.6815 8.43411C29.1275 7.95596 28.1645 6.13751 26.8843 5.17733C25.9617 4.4854 25.1226 3.53753 24.0826 2.97296C23.5515 2.68465 22.2734 1.93303 22.0062 1.46546C21.7796 1.06893 20.4953 0.461736 20.1005 0.242392C19.4152 -0.13831 18.3374 0.0432877 17.569 0.0432877C16.1892 0.0432877 14.3843 0.128084 13.1887 0.811261C11.4369 1.8123 10.7105 3.54545 9.34887 4.90712C8.2788 5.97719 7.1189 8.22021 6.6183 9.57185C6.16915 10.7845 5.48835 14.5744 6.27697 15.6587C6.88092 16.4892 6.78663 18.0542 6.9454 19.0862C7.1084 20.1457 8.07071 21.0538 8.21113 22.0016C8.29997 22.6013 9.50832 23.8082 9.98885 24.2487C10.7225 24.9212 11.0533 24.8744 12.0652 24.8744C15.6902 24.8744 17.5945 20.7468 20.1147 18.7306C21.2173 17.8486 23.0586 17.372 23.0586 19.3706C23.0586 20.7473 22.53 21.9416 21.6364 22.9403C20.5487 24.156 19.7156 26.5182 19.2756 28.0032C18.7941 29.6285 18.9628 31.4137 18.9628 33.123V44.0595C18.9628 45.6921 19.3972 47.9929 18.9485 49.5633C18.8224 50.005 18.7774 50.4048 18.6925 50.8717C18.5985 51.3888 17.9767 51.574 17.9388 52.0664C17.858 53.1167 16.7804 53.5019 16.1611 54.3276C14.8919 56.0198 14.4076 57.2063 14.0847 59.3052C13.9699 60.0516 13.1683 62.2148 12.6199 62.818C12.0317 63.465 11.2078 63.5777 10.5719 64.098C9.41911 65.0412 7.94441 66.1848 7.13028 67.3689C6.29872 68.5785 3.31039 67.9571 3.09131 69.9289C2.84096 72.182 3.85514 75.5181 2.6931 77.5517C1.93215 78.8834 2.92027 80.8231 1.65491 82.0884C0.956552 82.7868 0.584539 82.7693 0.218518 83.6386C-0.0918894 84.3758 0.0194135 85.2353 0.0194135 86.0421C0.0194135 87.2028 0.961343 90.0428 2.30911 90.3797C2.99147 90.5503 3.77158 90.9747 4.28593 91.489C4.67006 91.8731 5.36164 92.3634 5.39523 92.9681C5.4146 93.3168 5.32874 93.6809 5.52322 93.992L5.53065 94.0039C5.913 94.6156 6.1632 95.0159 6.1632 95.784C6.1632 96.995 6.27258 97.1935 6.93117 98.1448C7.85399 99.4777 9.1049 100.007 10.7142 100.136C11.1359 100.17 11.0142 100.648 11.539 100.648C11.9118 100.648 12.3261 100.599 12.691 100.676C13.7375 100.897 14.5133 101.388 15.7202 101.416C17.6739 101.461 19.5348 101.928 21.4658 101.928C23.1098 101.928 24.7748 102.696 26.3865 102.696C27.4605 102.696 28.9448 102.46 29.9277 102.952C31.4637 103.72 33.8427 103.72 35.5768 103.72H35.6022H43.2677H55.8255C56.6873 103.72 57.7997 103.898 58.6272 103.691C59.6338 103.44 60.4263 102.952 61.5142 102.952H61.5592C63.1234 102.952 65.4958 102.952 67.0322 102.497C68.5303 102.053 70.635 102.44 72.2089 102.44C74.4755 102.44 74.0008 100.443 74.0008 98.7279C74.0008 97.9446 73.544 94.4599 74.1288 93.992C74.8804 93.3907 75.1908 91.3967 75.4799 90.465C75.6769 89.8304 75.8463 89.1725 76.1057 88.5593C76.2958 88.1099 76.7516 88.052 76.959 87.578C77.4041 86.5607 78.4316 84.9305 79.3198 84.2644C80.087 83.6889 79.8886 82.2904 79.8886 81.4485C79.8886 80.3496 79.3278 79.1088 78.6087 78.2628C78.2796 77.8757 77.118 77.0287 77.5278 76.5277C78.6535 75.1519 77.646 72.2075 76.8167 71.0097C76.3787 70.377 74.147 71.2088 73.3466 71.2088C71.7759 71.2088 70.2909 71.0834 68.7673 70.9528C66.9268 70.7951 66.9 68.2851 67.9139 67.1698C69.2352 65.7165 71.2067 65.7234 71.9529 63.6713C72.4678 62.2555 72.397 60.2104 71.7254 59.035C71.3953 58.4574 71.2203 57.654 70.6161 57.2431C70.0804 56.8788 69.4909 56.5163 68.9948 56.0911C67.5629 54.8638 65.5227 55.3317 64.0456 54.1712C63.5186 53.7571 64.0172 49.808 64.0172 48.9376C64.0172 47.9453 63.5052 47.8019 63.5052 46.7759C63.5052 45.8533 63.2492 44.9758 63.2492 44.0738C63.2492 42.8997 62.8688 41.6706 62.723 40.5041C62.603 39.5437 62.4248 38.4045 62.1684 37.4749C61.5918 35.3849 60.7414 32.9178 60.6893 30.6769C60.6468 28.8484 59.4744 27.4722 59.1676 25.7846C58.8607 24.0969 57.4561 21.8507 56.536 20.3794L56.4655 20.2666C56.0845 19.6571 55.4173 18.4384 55.3135 17.7636C55.2338 17.2456 53.8899 16.2742 53.5358 15.7725C53.1362 15.2065 52.2845 13.8363 51.6727 13.5539C50.8068 13.1543 50.1816 11.6723 49.4399 11.5487Z" fill="#C3F6E3"/>
<path d="M56.2203 22.8691C56.2203 24.9288 53.0303 26.5974 49.0948 26.5974C45.1592 26.5974 41.9692 24.9288 41.9692 22.8691C41.9692 20.8093 45.1592 19.1408 49.0948 19.1408C53.0303 19.1408 56.2203 20.8093 56.2203 22.8691Z" fill="#2C2C2C"/>
<path d="M41.9659 18.4321C41.9659 19.258 41.2971 19.9268 40.4712 19.9268C39.6453 19.9268 38.9766 19.258 38.9766 18.4321C38.9766 17.6062 39.6453 16.9375 40.4712 16.9375C41.2971 16.9375 41.9659 17.6062 41.9659 18.4321Z" fill="#2C2C2C"/>
<path d="M59.5474 18.4321C59.5474 19.258 58.8787 19.9268 58.0528 19.9268C57.2269 19.9268 56.5581 19.258 56.5581 18.4321C56.5581 17.6062 57.2269 16.9375 58.0528 16.9375C58.8787 16.9375 59.5474 17.6062 59.5474 18.4321Z" fill="#2C2C2C"/>
<path d="M49.2984 26.3703C49.5692 28.7009 50.1343 31.2421 52.6756 32.0045C55.1165 32.7401 58.0222 31.8005 58.9116 29.266C59.1223 28.6708 58.1727 28.4133 57.9654 29.0052C57.2331 31.085 54.7052 31.6601 52.7926 31.0148C50.8432 30.356 50.4854 28.1559 50.2781 26.3703C50.2045 25.7517 49.2248 25.745 49.2984 26.3703Z" fill="#2C2C2C"/>
<path d="M48.9444 26.0192C49.5195 27.8449 48.6 29.928 46.9247 30.8275C45.1258 31.7938 42.7986 31.2321 41.4143 29.8143C40.9729 29.3629 40.2807 30.0551 40.7221 30.5065C42.4207 32.2452 45.2395 32.8471 47.423 31.6734C49.4693 30.5734 50.5928 27.9853 49.894 25.7584C49.7067 25.1598 48.7571 25.414 48.9477 26.0192H48.9444Z" fill="#2C2C2C"/>
<path d="M31.2759 69.3606C31.1622 69.0396 31.0518 68.7186 30.9448 68.3976C31.3962 68.4812 31.5099 69.0463 31.2759 69.3606Z" fill="#2C2C2C"/>
<path d="M32.4058 69.7686C32.787 70.7851 33.2016 71.7816 33.6564 72.758C33.5293 72.7011 33.4089 72.6309 33.2986 72.5506C32.5295 71.9956 32.028 71.0159 32.2988 70.0596C32.3256 69.9592 32.3624 69.8623 32.4058 69.7686Z" fill="#2C2C2C"/>
<path d="M36.6756 78.0207C36.8361 78.2448 37.0032 78.4621 37.1771 78.6794C36.913 78.8868 36.5151 78.9068 36.3178 78.5423C36.2777 78.4654 36.2342 78.3919 36.1874 78.3183C36.164 78.3384 36.1406 78.3584 36.1105 78.3752C36.0235 78.432 35.9332 78.4855 35.843 78.5357C35.6457 78.2715 35.4618 78.004 35.2812 77.7298C35.2277 77.6529 35.1776 77.576 35.1274 77.4958C34.88 77.1213 34.6459 76.7367 34.4219 76.3489C34.5055 76.3254 34.5891 76.3087 34.676 76.2987C34.987 76.2619 35.2879 76.292 35.5721 76.3756C35.843 76.817 36.1238 77.2483 36.4214 77.6696C36.505 77.79 36.5886 77.9037 36.6756 78.0207Z" fill="#2C2C2C"/>
<path d="M41.2637 82.3377C41.5078 82.4481 41.7653 82.5317 42.0228 82.5818C41.7152 82.8393 41.4008 83.0867 41.0765 83.3241C40.6518 83.1603 40.2439 82.9396 39.8594 82.6821C40.1536 82.4848 40.4412 82.2775 40.7254 82.0602C40.8993 82.1638 41.0798 82.2541 41.2637 82.3377Z" fill="#2C2C2C"/>
<path d="M45.0688 79.4586C44.9551 79.599 44.8414 79.7394 44.7244 79.8799C44.6408 79.9769 44.5606 80.0738 44.477 80.1708C44.1827 79.8297 43.6845 79.7027 43.2197 79.7796C43.4939 79.4853 43.7581 79.1844 44.0055 78.8734C44.38 78.9771 44.7344 79.161 45.0187 79.4151H45.022C45.022 79.4151 45.0554 79.4452 45.0688 79.4586Z" fill="#2C2C2C"/>
<path d="M45.7008 81.1606C45.6707 81.3812 45.6038 81.6153 45.4935 81.8527C45.4132 82.0232 45.3196 82.1804 45.2126 82.3275C44.7746 82.3075 44.3399 82.2807 43.9019 82.2506C44.2897 81.9798 44.6274 81.5718 44.7144 81.1071C45.0421 81.1271 45.3731 81.1472 45.7008 81.1606Z" fill="#2C2C2C"/>
<path d="M31.209 66.1705C31.3328 66.5985 31.4665 67.0265 31.6003 67.4478C31.5501 67.488 31.4966 67.5281 31.4398 67.5682C31.2358 67.712 31.0151 67.8257 30.7844 67.9093C30.6573 67.5314 30.537 67.1502 30.4199 66.7691C30.6172 66.6955 30.8011 66.5852 30.9616 66.438C31.0552 66.3544 31.1388 66.2642 31.209 66.1705Z" fill="#2C2C2C"/>
<path d="M30.1121 61.981C30.2091 62.4023 30.3094 62.8236 30.4164 63.245C30.3796 63.2316 30.3462 63.2216 30.3094 63.2115C30.0151 63.1346 29.7142 63.1246 29.4166 63.1681C29.3196 62.7835 29.226 62.3956 29.1357 62.0111C29.4668 61.9543 29.7945 61.9442 30.1121 61.981Z" fill="#2C2C2C"/>
<path d="M47.8476 7.3375C40.8124 7.34754 35.2384 12.4635 32.1922 18.4254C31.2192 20.3346 30.4435 22.3375 29.8282 24.3939C28.5576 28.6371 27.9858 33.1144 27.8052 37.5014C27.6849 40.4171 27.7116 43.3563 27.8821 46.2888C28.0961 50.0103 28.5342 53.7252 29.1829 57.3766C29.1895 57.4167 29.1962 57.4535 29.2029 57.4936C29.2665 57.8481 29.33 58.2025 29.4002 58.5569C29.2631 58.5971 29.126 58.6405 28.9923 58.6907C28.815 58.7576 28.6412 58.8311 28.474 58.9114C28.3904 58.5068 28.3135 58.1022 28.2433 57.6943C27.9858 56.2932 27.7651 54.8855 27.5745 53.4711C27.5311 53.1434 27.4909 52.8124 27.4475 52.4847C26.8623 47.7132 26.6483 42.8848 26.8021 38.1133C27.0395 30.7972 28.3202 23.1501 32.0016 16.72C32.7038 15.4962 33.5164 14.3192 34.4325 13.2292C34.5696 13.062 34.7101 12.8981 34.8538 12.7343C34.9274 12.6507 35.001 12.5671 35.0779 12.4869C35.225 12.323 35.3788 12.1592 35.5326 12.002C38.7761 8.65494 43.0293 6.36448 47.8476 6.35779C48.4796 6.35779 48.4763 7.3375 47.8476 7.3375Z" fill="#2C2C2C"/>
<path d="M57.9453 81.0435C59.3263 80.9599 60.7072 80.8529 62.0849 80.7225C61.4596 81.1538 60.7674 81.4682 60.0051 81.5451C59.2995 81.6186 58.5472 81.4381 57.9453 81.0435Z" fill="#2C2C2C"/>
<path d="M66.124 75.8073C66.2042 75.8608 66.2878 75.9143 66.3714 75.9611C66.1975 76.2353 66.0136 76.5061 65.8197 76.7736C65.7562 76.7335 65.6926 76.6934 65.6291 76.6532C65.1075 76.3055 65.599 75.4562 66.124 75.8073Z" fill="#2C2C2C"/>
<path d="M69.5346 69.3438C69.3707 69.8187 69.1968 70.2901 69.0129 70.7582C68.5849 70.9589 68.187 71.2331 67.8426 71.5474C67.7657 71.6176 67.6687 71.6611 67.5718 71.6811C67.7891 71.1929 67.9897 70.7014 68.1803 70.2032C68.2338 70.0594 68.2873 69.919 68.3408 69.7752C68.722 69.5813 69.1233 69.4341 69.5346 69.3438Z" fill="#2C2C2C"/>
<path d="M71.3107 62.5862C71.2538 62.8637 71.197 63.1412 71.1368 63.4188C70.983 63.1513 71.0398 62.7601 71.3107 62.5862Z" fill="#2C2C2C"/>
<path d="M72.7116 50.0538C72.7116 50.2076 72.7149 50.3648 72.7116 50.5186C72.7049 53.1869 72.4374 55.8385 72.0361 58.4734C71.976 58.8512 71.9158 59.2257 71.8556 59.6035C71.5546 59.4698 71.2437 59.3461 70.9327 59.2424C70.9996 58.8679 71.0598 58.4934 71.1166 58.1189C71.2336 57.3632 71.3373 56.6075 71.4242 55.8485C71.568 54.6113 71.6683 53.3708 71.7085 52.1269C71.9291 45.5097 71.1935 38.6918 69.8426 32.2216C69.8293 32.1648 69.8192 32.1079 69.8059 32.0511C69.1471 28.9314 68.2911 25.8551 67.1911 22.8625C66.1144 19.9334 64.8437 16.9976 63.0749 14.4095C61.3997 11.9552 59.1828 9.99912 56.4242 8.85556C53.7158 7.73541 50.7633 7.3375 47.8475 7.3375C47.2155 7.3375 47.2155 6.35779 47.8475 6.35779C51.4822 6.35779 55.2205 6.96635 58.4338 8.74188C58.6043 8.8355 58.7749 8.93247 58.9387 9.03613C59.0691 9.11303 59.1962 9.19328 59.3199 9.27353C59.4637 9.36716 59.6041 9.46412 59.7412 9.56444C59.8683 9.65137 59.9886 9.74165 60.1124 9.83194C62.5265 11.6643 64.3054 14.2122 65.6864 16.914C69.0769 23.558 70.8892 30.951 71.8522 38.3106C72.3404 42.0322 72.6514 45.8039 72.7015 49.5589C72.7082 49.7228 72.7116 49.89 72.7116 50.0538Z" fill="#2C2C2C"/>
<path d="M41.2637 72.9884C41.2972 73.3829 41.344 73.7742 41.4042 74.1654C41.0731 74.1821 40.7421 74.3092 40.4311 74.4931C40.3542 74.0684 40.294 73.6437 40.2539 73.2157C40.5782 73.0853 40.916 73.0051 41.2637 72.9884Z" fill="#2C2C2C"/>
<path d="M42.5874 65.3849C42.4537 65.6558 42.3299 65.9333 42.2162 66.2142C42.0892 65.8999 42.2096 65.4752 42.5874 65.3849Z" fill="#2C2C2C"/>
<path d="M61.1256 63.305C60.8849 63.5558 60.6441 63.8033 60.4067 64.054C60.2028 63.6829 59.9821 63.3218 59.7413 62.9774C58.7382 61.5496 57.4007 60.3926 55.6687 59.7406C53.5521 58.9448 51.2215 58.9247 49.0982 59.6136H49.0949C48.4997 59.8041 47.9179 60.0549 47.3661 60.3559C46.8846 60.2823 46.3898 60.2823 45.9016 60.3659C45.7244 60.396 45.5505 60.4361 45.3833 60.4829C46.042 59.9713 46.7542 59.5333 47.5133 59.1755C47.53 59.1688 47.5467 59.1588 47.5634 59.1521H47.5668C50.5761 57.7578 54.2008 57.7912 57.1466 59.336C58.4941 60.0416 59.5808 61.058 60.4469 62.2518C60.691 62.5895 60.915 62.9406 61.1256 63.305Z" fill="#2C2C2C"/>
<path d="M45.109 79.4049C45.0956 79.425 45.0822 79.4417 45.0689 79.4584C44.9552 79.5988 44.8415 79.7393 44.7244 79.8797C44.7077 79.6691 44.808 79.4651 45.0187 79.4149H45.022C45.0488 79.4083 45.0789 79.4049 45.109 79.4049Z" fill="#2C2C2C"/>
<path d="M36.188 78.3186C36.1646 78.3387 36.1412 78.3588 36.1111 78.3755C36.0241 78.4323 35.9339 78.4858 35.8436 78.536C34.7502 79.188 33.5531 79.616 32.2892 79.7865C31.3329 79.917 30.2528 79.9437 29.4671 79.2816C28.8719 78.7834 28.7114 77.9441 29.2598 77.3389C29.6008 76.9611 30.0756 76.8608 30.5605 76.7738C28.6512 75.8443 26.8656 74.674 25.3175 73.2127C23.465 71.4606 21.9871 69.2404 21.1746 66.8128C21.0074 66.3113 20.867 65.7963 20.76 65.2747C20.4958 64.0074 20.4189 62.7 20.5694 61.3859C21.0174 57.4403 23.5754 53.8625 27.3572 52.5083C27.3873 52.4983 27.4173 52.4916 27.4474 52.4849C27.9791 52.3913 28.1797 53.254 27.618 53.4546C27.6046 53.4613 27.5879 53.4646 27.5745 53.4713C22.6793 55.2502 20.6262 60.8275 21.8534 65.6392C21.8734 65.7228 21.8968 65.8064 21.9236 65.89C22.3014 67.2743 22.8966 68.5449 23.659 69.7018C25.6585 72.748 28.8017 74.9983 32.1855 76.4428C32.5366 76.5933 32.4731 77.1216 32.1855 77.2888C31.7007 77.573 31.1791 77.6365 30.6407 77.7536C30.3231 77.8204 29.9352 77.8639 29.9586 78.2417C29.9787 78.5962 30.4167 78.74 30.7176 78.8169C31.4198 79.0008 32.2089 78.9305 32.9847 78.7199C33.3491 78.6229 33.7136 78.4925 34.0614 78.3454C34.4961 78.1615 34.9107 77.9475 35.2818 77.7301C35.3487 77.6934 35.4122 77.6532 35.4758 77.6165C35.5259 77.5864 35.5694 77.5596 35.6162 77.5295C36.1211 77.2085 36.5892 77.9508 36.188 78.3186Z" fill="#2C2C2C"/>
<path d="M72.3534 73.788C71.9454 74.1056 71.5275 74.4099 71.1095 74.7041C71.5709 74.8479 71.9989 75.0987 72.3567 75.4665C72.9887 76.1219 73.1358 77.028 72.2731 77.5697C71.4405 78.088 70.0362 77.9509 69.1033 77.8573C67.9229 77.7369 66.8228 77.3925 65.8197 76.7739C65.7562 76.7338 65.6926 76.6937 65.6291 76.6535C65.1075 76.3058 65.599 75.4565 66.124 75.8076C66.2042 75.8611 66.2878 75.9146 66.3714 75.9614C67.5317 76.6569 68.8157 76.9344 70.1732 76.921C70.4775 76.9177 71.9822 77.0581 71.8685 76.4161C71.7448 75.714 70.3872 75.4699 69.8589 75.5401C69.3206 75.617 68.9963 74.9716 69.4811 74.644C70.5344 73.9351 71.5776 73.1794 72.5774 72.3602C72.9385 72.0693 73.293 71.765 73.6407 71.4574C73.7644 71.8419 73.8112 72.2498 73.7611 72.6544C73.303 73.049 72.8315 73.4268 72.3534 73.788Z" fill="#2C2C2C"/>
<path d="M80.0643 63.9538C79.9238 64.3919 79.76 64.8199 79.5761 65.2412C79.5761 65.2445 79.5761 65.2479 79.5761 65.2512C79.0912 65.3649 78.6331 65.5722 78.2051 65.8364C78.4894 65.3014 78.7401 64.7463 78.9575 64.1745C79.225 63.4757 79.439 62.7467 79.5928 61.9877C80.1111 59.4231 79.8001 56.7247 78.4191 54.4743C77.1519 52.4079 75.1189 50.8999 72.7147 50.5187C72.6813 50.512 72.6512 50.5053 72.6177 50.502C72.5342 50.4886 72.4673 50.4618 72.4171 50.4251C72.1864 50.2612 72.2299 49.8934 72.4439 49.6894C72.5141 49.6226 72.601 49.5757 72.7047 49.559C72.7615 49.549 72.8184 49.5456 72.8786 49.5557C75.1256 49.8867 77.1117 51.1573 78.5195 52.9195C79.0611 53.5983 79.4958 54.3205 79.8335 55.0762C80.2314 55.9523 80.4956 56.8718 80.6427 57.8114C80.9604 59.8377 80.7263 61.961 80.0676 63.9538H80.0643Z" fill="#2C2C2C"/>
<path d="M79.5892 55.0529C81.2678 55.3003 82.8661 54.2471 84.0631 53.0433C86.0192 51.0805 87.4604 48.4189 87.2999 45.6536C87.1394 42.8884 85.0027 40.1666 82.2408 39.9659C81.6724 39.9258 81.0939 39.986 80.5355 39.8757C79.9771 39.7653 79.412 39.4309 79.2481 38.8859C79.081 38.3308 79.3986 37.7123 79.8835 37.3979C80.3683 37.0836 80.9802 37.0234 81.5587 37.0836C83.5984 37.2976 85.2368 38.8224 86.5743 40.3772C87.6677 41.6445 88.6942 43.0355 89.1289 44.6505C89.5636 46.2689 89.3697 47.9943 88.955 49.6193C88.2328 52.4515 86.698 55.2602 84.1066 56.6144C82.9363 57.2263 81.7359 57.8349 80.1677 57.8349L79.5892 55.0562V55.0529Z" fill="#2C2C2C"/>
<path d="M70.2507 31.7935C70.2507 31.7935 63.5665 35.2008 63.2723 43.9212C62.978 52.6417 71.8824 56.049 71.8824 56.049C71.8824 56.049 73.9957 43.7641 70.2507 31.7935Z" fill="#2C2C2C"/>
<path d="M29.4532 24.0263C29.4532 24.0263 36.0906 30.152 35.3549 37.0602C34.6193 43.9717 27.437 46.4661 27.437 46.4661C27.437 46.4661 26.7849 32.8771 29.4532 24.0229V24.0263Z" fill="#2C2C2C"/>
<path d="M59.8583 9.37388C61.062 5.87298 63.2655 2.34867 67.0406 1.30208C70.2339 0.415991 73.9488 1.3188 76.1724 3.82995C77.5935 5.4316 78.289 7.55488 78.7404 9.61128C79.1751 11.5941 79.4192 14.2725 77.5233 15.6267C75.6708 16.9475 73.3536 15.5565 72.0863 14.1019C70.7722 12.5906 69.9363 10.7314 68.5988 9.23344C67.3249 7.80566 65.6129 6.86941 63.6635 6.98979C61.9147 7.10013 60.3498 7.93272 59.2832 9.31369C58.8986 9.81191 59.7479 10.3001 60.1291 9.80856C61.3462 8.23032 63.5866 7.56157 65.4758 8.19354C67.686 8.9325 68.8763 11.2062 70.0768 13.0252C71.1936 14.7172 72.5511 16.3824 74.5875 16.9408C76.4466 17.449 78.3124 16.7635 79.2888 15.0816C80.3554 13.2459 80.0745 11.0524 79.6164 9.07963C79.1216 6.94632 78.3291 4.80632 76.8579 3.14114C74.5507 0.533022 70.7656 -0.476788 67.4084 0.208679C62.9512 1.11483 60.2963 5.07048 58.902 9.11975C58.6947 9.71828 59.6443 9.97575 59.8482 9.38056L59.8583 9.37388Z" fill="#2C2C2C"/>
<path d="M35.6025 12.1222C33.3789 8.30035 30.9112 4.20092 26.6313 2.43877C24.742 1.65968 22.5753 1.39218 20.5991 2.01411C18.6899 2.61599 17.1551 4.01367 16.1152 5.69892C14.9415 7.60485 14.4467 9.81841 14.2561 12.0253C14.0755 14.1419 13.8615 16.653 14.5002 18.7194C15.0285 20.4314 16.4596 21.6051 18.2986 21.4279C20.3417 21.2339 21.8296 19.7527 22.7826 18.0407C23.9696 15.9107 24.5615 13.102 26.7082 11.6675C29.3196 9.92206 32.4594 11.8949 34.6629 13.3929C35.1879 13.7473 35.6761 12.898 35.1578 12.5469C33.4826 11.41 31.6301 10.2564 29.5704 10.0424C27.6645 9.84516 25.9759 10.6677 24.7889 12.139C23.545 13.6804 22.9799 15.5797 22.0637 17.305C21.1676 18.9903 19.4924 20.8795 17.3423 20.4047C15.296 19.9533 15.1488 17.4522 15.1288 15.7636C15.102 13.4263 15.1522 11.0389 15.8176 8.78185C16.3727 6.89932 17.4226 5.06695 19.0309 3.8933C20.7028 2.67283 22.806 2.40199 24.7922 2.87011C29.6841 4.02036 32.4026 8.57788 34.7532 12.6171C35.0709 13.1621 35.9168 12.6706 35.5992 12.1222H35.6025Z" fill="#2C2C2C"/>
<path d="M59.8916 8.55121C59.8916 8.55121 60.5871 3.25807 65.6529 1.28191C70.7153 -0.694237 73.1128 0.539604 76.617 3.59578C80.1212 6.65197 79.9541 13.0419 79.5528 13.6538C79.1516 14.2657 78.2621 18.024 74.6843 16.623C71.1099 15.222 69.7389 10.3736 68.6121 9.54096C67.4852 8.70837 66.4587 6.555 62.5398 7.63168L60.1023 9.09958L59.8949 8.55121H59.8916Z" fill="#2C2C2C"/>
<path d="M39.6454 15.008C39.6755 14.9779 39.709 14.9479 39.7424 14.9211C39.709 14.9479 39.6755 14.9713 39.6421 14.998C39.7023 14.9512 39.7658 14.9144 39.836 14.8843C39.7959 14.901 39.7591 14.9178 39.719 14.9345C39.7892 14.9044 39.8628 14.8877 39.9363 14.8743C39.8929 14.881 39.8494 14.8877 39.8059 14.891C39.8795 14.881 39.9564 14.881 40.03 14.891C39.9865 14.8843 39.943 14.8776 39.8996 14.8743C39.9129 14.8743 39.923 14.8776 39.9363 14.881C39.9999 14.901 40.0667 14.9044 40.1303 14.891C40.1971 14.891 40.2573 14.8676 40.3142 14.8342C40.4145 14.774 40.5115 14.6569 40.5382 14.5399C40.5683 14.4129 40.5616 14.2724 40.4881 14.1621C40.4212 14.0618 40.3175 13.9581 40.1938 13.938C40.0835 13.918 39.9698 13.9013 39.8561 13.9113C39.7424 13.9213 39.6254 13.9347 39.5184 13.9715C39.3044 14.0417 39.1071 14.1554 38.9499 14.3192C38.863 14.4129 38.8062 14.5366 38.8062 14.667C38.8062 14.7874 38.8597 14.9311 38.9499 15.0147C39.0436 15.1017 39.1673 15.1652 39.2977 15.1585C39.4247 15.1518 39.5552 15.1117 39.6454 15.0147V15.008Z" fill="#2C2C2C"/>
<path d="M57.2066 14.5937C57.5041 14.5535 57.8051 14.5101 58.1027 14.4699C58.2164 14.4532 58.3401 14.3362 58.3969 14.2459C58.4571 14.1423 58.4839 13.9851 58.4471 13.8681C58.4103 13.751 58.3367 13.634 58.2231 13.5738C58.1829 13.5571 58.1461 13.5404 58.106 13.5237C58.0191 13.5003 57.9321 13.5003 57.8452 13.5237C57.5476 13.5638 57.2467 13.6073 56.9491 13.6474C56.8354 13.6641 56.7117 13.7811 56.6548 13.8714C56.5946 13.9751 56.5679 14.1322 56.6047 14.2493C56.6415 14.3663 56.715 14.4833 56.8287 14.5435C56.8688 14.5602 56.9056 14.5769 56.9457 14.5937C57.0327 14.6171 57.1196 14.6171 57.2066 14.5937Z" fill="#2C2C2C"/>
<path d="M88.6307 71.8482C88.6408 72.2495 88.6006 72.6407 88.5204 73.0252C88.2128 74.5165 87.31 75.8741 86.2968 77.0879C85.9156 77.5493 85.5177 77.9873 85.1298 78.402C85.0697 78.4655 85.0061 78.5123 84.9426 78.5424C84.8623 78.5792 84.7787 78.5925 84.7018 78.5859C84.7018 78.5859 84.6985 78.5892 84.6952 78.5859C84.2571 78.5591 83.8793 77.9907 84.2705 77.5727C84.3106 77.5292 84.3541 77.4858 84.3976 77.439C84.3976 77.439 84.3987 77.4378 84.4009 77.4356C85.8354 75.8975 87.4103 74.1621 87.427 71.9352C87.4404 70.0459 85.5545 67.9528 83.6452 69.2669C83.1503 69.6046 82.5117 68.9659 82.8126 68.4677C83.7923 66.8493 81.8396 65.0771 80.248 65.1541C80.0173 65.1641 79.7932 65.1975 79.5725 65.251C79.0877 65.3647 78.6296 65.572 78.2016 65.8362C77.252 66.4314 76.4495 67.3275 75.7741 68.1701C75.744 68.2102 75.7105 68.2504 75.6804 68.2905C75.2257 68.8723 74.4967 68.15 74.7308 67.585C75.2457 66.3611 75.7975 65.0136 75.7272 63.6594C75.6537 62.3186 74.8779 61.3422 73.7879 60.64C73.2194 60.2755 72.5574 59.9111 71.8552 59.6034C71.5542 59.4697 71.2433 59.346 70.9323 59.2423C69.7419 58.8277 68.488 58.6204 67.3779 58.8478C65.1644 59.3025 63.4022 60.9911 61.8708 62.5459C61.6233 62.8001 61.3726 63.0508 61.1251 63.305C60.8844 63.5557 60.6436 63.8032 60.4062 64.054C59.2092 65.3146 58.0556 66.6253 57.0558 68.0497C56.7013 68.558 55.6982 68.2871 55.959 67.6117C56.3469 66.6019 55.9824 65.3681 54.9593 64.8732C53.8257 64.3315 52.5016 64.9568 51.8864 65.9632C51.5486 66.5116 50.5321 66.1739 50.7863 65.5219C51.8028 62.9204 49.7731 60.7169 47.3656 60.3558C46.8841 60.2822 46.3892 60.2822 45.9011 60.3658C45.7238 60.3959 45.55 60.436 45.3828 60.4828H45.3794C42.4035 61.2686 40.7015 64.1576 39.9492 66.9898C39.7519 67.7321 38.6184 67.4412 38.7923 66.6955C39.0698 65.5118 37.6353 64.3616 36.5453 64.9467C36.124 65.1708 35.4753 64.8163 35.6592 64.288C36.2711 62.5192 35.589 60.64 34.1946 59.4329C32.8538 58.2793 31.0482 58.0687 29.3997 58.5568C29.2626 58.597 29.1255 58.6404 28.9918 58.6906C28.8145 58.7575 28.6407 58.831 28.4735 58.9113C24.6683 60.6768 23.6786 65.251 24.257 69.1197C24.3172 69.5143 23.9862 69.7183 23.6585 69.7015C23.4144 69.6949 23.1703 69.5611 23.0901 69.3003C22.759 68.2437 22.0535 67.3843 21.1741 66.8125C19.5758 65.766 17.399 65.6656 15.8274 67.0566C14.724 68.033 14.0452 69.5477 14.1823 71.029C14.2024 71.2664 14.2492 71.5005 14.3161 71.7312C14.3194 71.7345 14.3228 71.7379 14.3194 71.7412C14.3361 71.8114 14.3595 71.8817 14.3863 71.9485C14.821 73.1857 15.891 74.2056 17.2786 74.1186C17.9708 74.0752 18.0811 75.0883 17.4592 75.2856C14.5702 76.2085 12.5071 79.4017 14.1689 82.274C14.8511 83.451 16.0782 84.2702 17.4692 84.1666C18.9037 84.0562 20.2044 83.1133 20.5756 81.7056C20.7427 81.0736 21.8127 81.1572 21.7492 81.8427C21.6088 83.3908 23.4244 84.1565 24.7251 83.782C26.2566 83.344 27.3165 81.8962 28.2394 80.6891C28.5704 80.2577 29.2492 80.6222 29.2659 81.0937C29.3228 82.7856 30.6168 84.1198 32.1717 84.6548C33.9773 85.2733 35.9835 84.745 37.6454 83.9526C38.4144 83.5848 39.1534 83.1601 39.8589 82.6819C40.1532 82.4847 40.4407 82.2774 40.7249 82.06C41.6211 81.3779 42.4604 80.6088 43.2194 79.7796C43.4936 79.4853 43.7577 79.1844 44.0052 78.8734C44.5034 78.2715 44.9615 77.6396 45.3828 76.9876C45.7974 76.3422 46.8406 76.9207 46.4227 77.5694C46.0214 78.1946 45.5834 78.8099 45.1086 79.4051C45.0952 79.4251 45.0818 79.4419 45.0685 79.4586C44.9548 79.599 44.8411 79.7395 44.7241 79.8799C44.6405 79.9769 44.5602 80.0738 44.4766 80.1708C44.2192 80.4684 43.9517 80.7593 43.6775 81.0435C43.3197 81.4113 42.9519 81.7691 42.5673 82.1102C42.3901 82.274 42.2062 82.4312 42.0223 82.5816C41.7147 82.8391 41.4004 83.0865 41.076 83.3239C39.6784 84.3471 38.1436 85.1663 36.5185 85.6779C34.6226 86.2731 32.4927 86.3199 30.7305 85.3001C29.6104 84.6514 28.7376 83.665 28.3297 82.4813C27.1795 83.8489 25.745 85.1429 23.8892 85.0794C22.7657 85.0393 21.6088 84.4608 20.9935 83.5446C19.2147 85.9087 15.3058 85.9087 13.44 83.334C12.4135 81.9196 12.1928 80.3547 12.5405 78.9102C12.6342 78.5156 12.7679 78.1411 12.9418 77.7733C13.4735 76.6365 14.3595 75.6367 15.4596 74.9278C14.52 74.4563 13.7744 73.6037 13.3564 72.6106C13.2394 72.3297 13.1491 72.0355 13.0856 71.7379C13.0622 71.6342 13.0455 71.5272 13.0321 71.4202C12.7679 69.6012 13.4801 67.6986 14.7742 66.4113C16.4527 64.7428 18.7933 64.492 20.7595 65.2744C21.1674 65.4349 21.5586 65.6422 21.9231 65.8897C22.2842 66.1338 22.6219 66.418 22.9229 66.7356C23.0198 62.9639 24.6683 59.1688 28.2428 57.6942C28.5404 57.5704 28.8547 57.4634 29.1824 57.3765C29.2827 57.3464 29.3863 57.3197 29.49 57.2963C31.6233 56.798 33.8803 57.3297 35.4084 58.9447C36.5988 60.2053 37.2675 61.924 37.0435 63.6193C37.9797 63.5791 38.8926 64.0473 39.4543 64.7762C40.7417 61.7769 43.1291 59.2189 46.62 59.0985C46.9376 59.0885 47.2519 59.1052 47.5629 59.152H47.5662C48.0946 59.2289 48.6128 59.3861 49.0943 59.6135H49.0977C50.8531 60.4193 52.1806 62.0912 52.2575 63.9971C53.1704 63.4621 54.2805 63.2983 55.3137 63.733C56.2466 64.1242 56.922 64.9534 57.1895 65.8964C57.9887 64.8866 58.848 63.9102 59.7408 62.9773C59.9715 62.7332 60.2089 62.4924 60.4463 62.2517C60.968 61.7267 61.4996 61.2151 62.038 60.7136C63.857 59.0183 66.0973 57.4166 68.7054 57.5704C69.5313 57.6206 70.3338 57.8379 71.1162 58.1188C71.4238 58.2325 71.7315 58.3529 72.0357 58.4733C72.1996 58.5435 72.3668 58.6103 72.5306 58.6806C73.6341 59.142 74.7676 59.7004 75.6069 60.5765C76.9912 62.0243 77.0748 63.7798 76.6735 65.5152C77.3623 64.9334 78.1314 64.4418 78.9539 64.1743C79.3151 64.0506 79.6862 63.9737 80.0641 63.9536C80.5021 63.9236 80.9502 63.967 81.4083 64.0974C82.9965 64.5555 84.3374 66.1237 84.2605 67.7354C86.046 67.4178 87.9185 68.7185 88.4335 70.5241C88.5605 70.9755 88.6241 71.4169 88.6307 71.8482Z" fill="#2C2C2C"/>
<path d="M94.0915 75.3856C94.0915 75.3856 94.0915 75.3923 94.0882 75.3957C93.9043 75.8772 93.5331 76.3085 93.0483 76.5927C92.9112 76.673 92.7707 76.7465 92.6303 76.8167C91.1089 77.5657 89.3066 77.7363 87.6715 78.0406C86.762 78.2111 85.8525 78.3783 84.943 78.5421C84.8628 78.5588 84.7826 78.5722 84.7023 78.5856C84.7023 78.5856 84.699 78.5889 84.6956 78.5856C83.5654 78.7962 82.4319 79.0002 81.2984 79.2008C77.0552 79.9498 72.8019 80.642 68.532 81.1971C60.8012 82.2035 53.0003 82.7352 45.2127 82.3272C44.7747 82.3072 44.34 82.2804 43.902 82.2503H43.8986C43.5308 82.2269 43.163 82.2002 42.7952 82.1701C42.7116 82.1634 42.6347 82.1433 42.5678 82.1099C42.0395 81.8591 42.0963 80.9229 42.7751 80.9764C43.0761 80.9998 43.377 81.0232 43.6779 81.0432C44.0223 81.0666 44.3701 81.0901 44.7145 81.1068C45.0422 81.1268 45.3732 81.1469 45.7009 81.1603C48.9477 81.3174 52.2045 81.3174 55.4579 81.177C56.2872 81.1402 57.1131 81.0967 57.9423 81.0432H57.9457C59.3266 80.9596 60.7076 80.8526 62.0852 80.7222C67.3048 80.2441 72.501 79.4917 77.6671 78.6224C79.9141 78.2479 82.1577 77.8466 84.398 77.4387C84.398 77.4387 84.3991 77.4376 84.4014 77.4353C85.0333 77.3217 85.6653 77.2046 86.2973 77.0909C87.0931 76.9405 87.8855 76.7933 88.6814 76.6462C89.4136 76.5091 92.3127 76.1714 92.9145 75.2017H92.9179C93.0115 75.0446 93.0483 74.874 93.0048 74.6834C93.0048 74.6834 93.0015 74.6567 92.9981 74.6467C92.8109 73.9378 91.4165 73.6803 90.8213 73.4998C90.069 73.2724 89.2999 73.1186 88.5208 73.0249C88.4473 73.0149 88.3704 73.0049 88.2968 72.9982C87.5411 72.9213 87.511 71.7276 88.2734 71.8078C88.3938 71.8212 88.5108 71.8346 88.6312 71.8479C89.5875 71.9616 90.5238 72.1489 91.4433 72.4465C92.1622 72.6839 93.1185 72.9414 93.6669 73.4897C94.2353 74.0649 94.3222 74.767 94.0915 75.3856Z" fill="#2C2C2C"/>
<path d="M13.7846 71.4269C12.7146 71.3734 11.6212 71.5306 10.6113 71.895C9.66841 72.2328 8.70207 72.7276 8.00992 73.4699C7.30773 74.2223 6.99008 75.2354 7.44817 76.1984C7.85611 77.0611 8.76226 77.5961 9.58482 78.0007C10.6013 78.5023 11.6713 78.7765 12.7848 78.9537C13.1024 79.0038 13.4268 78.8567 13.5104 78.5223C13.5839 78.2314 13.4 77.8469 13.079 77.7967C12.0358 77.6296 11.0193 77.3921 10.073 76.9106C9.41429 76.5763 8.28745 76.0112 8.4212 75.105C8.55829 74.1788 9.72526 73.5636 10.4843 73.2225C11.5275 72.7544 12.6677 72.5638 13.808 72.6173C14.129 72.634 14.3998 72.3163 14.3931 72.0087C14.3864 71.6677 14.1089 71.4403 13.7846 71.4236V71.4269Z" fill="#2C2C2C"/>
<path d="M32.4461 63.5019C32.4361 63.4752 32.4227 63.4484 32.406 63.4217C32.3926 63.3983 32.3759 63.3748 32.3592 63.3514C31.8309 62.5423 31.0184 62.0808 30.1122 61.9805C29.7945 61.9437 29.4669 61.9538 29.1358 62.0106C28.0157 62.1978 26.9758 62.9301 26.5578 64.0035C26.0663 65.2774 26.6615 66.732 27.7381 67.501C28.6008 68.1163 29.7879 68.2768 30.7843 67.909C31.015 67.8254 31.2357 67.7117 31.4397 67.5679C31.4965 67.5278 31.55 67.4876 31.6002 67.4475C32.8006 66.4946 33.1818 64.8662 32.4461 63.5019ZM31.2089 66.1702C31.1387 66.2638 31.0551 66.3541 30.9615 66.4377C30.801 66.5848 30.6171 66.6952 30.4198 66.7687C29.8514 66.9995 29.1693 66.9493 28.6142 66.645C27.8652 66.2371 27.4205 65.3543 27.6245 64.5719C27.7147 64.2242 27.9053 63.9533 28.2063 63.6925C28.4504 63.4852 28.7948 63.318 29.1525 63.2244C29.2395 63.201 29.3298 63.1809 29.4167 63.1675C29.7143 63.1241 30.0152 63.1341 30.3095 63.211C30.3463 63.221 30.3797 63.2311 30.4165 63.2444C30.811 63.3748 31.1488 63.6557 31.3862 64.0436C31.8008 64.7658 31.6938 65.565 31.2089 66.1702Z" fill="#2C2C2C"/>
<path d="M36.4518 69.4708C36.4417 69.4474 36.425 69.4273 36.4116 69.4039C36.3916 69.3771 36.3715 69.347 36.3481 69.3236C35.7763 68.6047 34.8534 68.3673 33.964 68.5613C33.2986 68.705 32.6967 69.1464 32.4058 69.765C32.3624 69.862 32.3256 69.959 32.2988 70.0593C32.028 71.0156 32.5295 71.9953 33.2986 72.5504C33.4089 72.6306 33.5293 72.7008 33.6564 72.7577C33.974 72.9048 34.3352 72.985 34.6762 72.9549C35.1711 72.9148 35.6091 72.7008 35.9703 72.3598C36.7259 71.6475 37.0068 70.3836 36.4518 69.4708ZM35.5489 70.6545V70.6678C35.5489 70.6678 35.5489 70.6745 35.5456 70.6779V70.6979C35.5322 70.7648 35.5188 70.8283 35.5021 70.8952C35.4921 70.9286 35.4821 70.9587 35.472 70.9922C35.4687 71.0055 35.4653 71.0156 35.4653 71.0223C35.4653 71.0223 35.4587 71.0356 35.4553 71.0423C35.4286 71.0992 35.4018 71.156 35.3684 71.2095C35.3483 71.2429 35.3283 71.2764 35.3082 71.3098C35.3048 71.3132 35.3015 71.3199 35.3015 71.3232H35.2982C35.2982 71.3232 35.2915 71.3332 35.2915 71.3366L35.2848 71.3433C35.238 71.3934 35.1945 71.4503 35.1443 71.5004C35.1143 71.5272 35.0842 71.5539 35.0574 71.5807H35.0541C35.0541 71.5807 35.0507 71.5874 35.0474 71.5874C34.9872 71.6241 34.9303 71.6643 34.8702 71.6977C34.8668 71.6977 34.8668 71.701 34.8635 71.701C34.8534 71.7044 34.8434 71.7077 34.8334 71.7111C34.8334 71.7144 34.8267 71.7144 34.8233 71.7144C34.82 71.7178 34.8133 71.7178 34.81 71.7178C34.8066 71.7178 34.8033 71.7244 34.7999 71.7178C34.7765 71.7278 34.7531 71.7345 34.7297 71.7412C34.7197 71.7445 34.6829 71.7545 34.6562 71.7612H34.6528C34.6027 71.7612 34.5492 71.7612 34.499 71.7646C34.4923 71.7646 34.4756 71.7646 34.4656 71.7612H34.4555C34.3954 71.7512 34.3318 71.7378 34.275 71.7178C34.2549 71.7111 34.2048 71.691 34.1981 71.691C34.168 71.6776 34.1345 71.6609 34.1044 71.6442C34.0744 71.6275 34.0443 71.6108 34.0142 71.594C34.0142 71.594 33.9841 71.574 33.9607 71.5606H33.954C33.954 71.5606 33.954 71.5539 33.9506 71.5539C33.9473 71.5539 33.9473 71.5539 33.9439 71.5506C33.9439 71.5506 33.9406 71.5439 33.9373 71.5439H33.9306C33.9105 71.5205 33.8838 71.5004 33.8838 71.5004C33.857 71.477 33.8303 71.4536 33.8069 71.4302C33.7768 71.4001 33.7467 71.37 33.7166 71.3399C33.7099 71.3299 33.6965 71.3165 33.6865 71.3031C33.6865 71.2998 33.6831 71.2965 33.6798 71.2965C33.6764 71.2931 33.6764 71.2898 33.6731 71.2864C33.6731 71.2864 33.6731 71.2831 33.6698 71.2831C33.6296 71.2262 33.5929 71.166 33.5561 71.1059L33.5293 71.0524C33.5226 71.0289 33.4925 70.9654 33.4925 70.9654C33.4691 70.9019 33.4558 70.835 33.4357 70.7715C33.4324 70.7615 33.4324 70.7548 33.429 70.7447C33.429 70.7046 33.4223 70.6645 33.4223 70.6277C33.419 70.5909 33.419 70.5575 33.4223 70.524C33.4223 70.4939 33.4257 70.4672 33.429 70.4371C33.4257 70.4639 33.4223 70.4873 33.419 70.5107C33.4023 70.494 33.4591 70.3335 33.4658 70.3134C33.4691 70.3067 33.4725 70.2933 33.4758 70.28C33.4792 70.2733 33.4859 70.2666 33.4925 70.2532C33.4925 70.2499 33.5327 70.1763 33.5594 70.1362C33.5594 70.1362 33.5628 70.1295 33.5628 70.1261C33.5929 70.0927 33.6229 70.0593 33.6497 70.0292C33.6731 70.0058 33.6965 69.9857 33.7199 69.9623C33.7366 69.9456 33.74 69.9389 33.74 69.9389C33.7768 69.9155 33.8236 69.8887 33.8336 69.882C33.8838 69.852 33.9373 69.8252 33.9908 69.7985C33.9941 69.7985 33.9974 69.7951 33.9974 69.7951C34.0309 69.7884 34.0576 69.7717 34.0877 69.7617C34.1579 69.7383 34.2282 69.7182 34.3017 69.7015C34.3051 69.7015 34.3084 69.7015 34.3151 69.6981C34.3218 69.6981 34.3285 69.6981 34.3352 69.6948H34.3419C34.3419 69.6948 34.3552 69.6915 34.3619 69.6915C34.3686 69.6915 34.3753 69.6915 34.382 69.6881C34.4656 69.6814 34.5458 69.6781 34.6261 69.6814C34.6528 69.6814 34.6796 69.6814 34.7063 69.6848H34.723C34.7933 69.7149 34.8936 69.7149 34.9705 69.7383C34.9872 69.745 35.0173 69.755 35.034 69.7617C35.0407 69.765 35.044 69.765 35.044 69.765C35.0741 69.7784 35.1009 69.7918 35.1276 69.8085C35.1577 69.8219 35.1845 69.8419 35.2146 69.8586C35.2213 69.862 35.2279 69.8687 35.2346 69.8687C35.2346 69.872 35.238 69.872 35.238 69.872C35.2413 69.8754 35.2447 69.882 35.2513 69.8854C35.2848 69.9121 35.3149 69.9389 35.345 69.969C35.3617 69.9857 35.3784 70.0058 35.3951 70.0225C35.4185 70.0593 35.4386 70.0927 35.462 70.1328C35.4653 70.1429 35.472 70.1596 35.4821 70.173C35.4821 70.173 35.4888 70.193 35.4888 70.1964C35.4921 70.1997 35.4921 70.203 35.4921 70.203C35.5088 70.2599 35.5222 70.3134 35.5389 70.3702C35.5423 70.3736 35.5423 70.3769 35.5423 70.3803V70.387C35.5423 70.4204 35.5489 70.4538 35.5489 70.4873C35.5523 70.524 35.5523 70.5575 35.5523 70.5909C35.5489 70.611 35.5489 70.631 35.5489 70.6511V70.6545Z" fill="#2C2C2C"/>
<path d="M48.9272 63.0774C48.2952 62.3284 47.2386 62.0341 46.3024 62.3016C45.2926 62.5892 44.7141 63.4753 44.5402 64.4717C44.4332 65.0803 44.4499 65.6888 44.7141 66.2506C44.9649 66.7856 45.4397 67.1434 45.9881 67.334C46.9945 67.685 48.225 67.3607 48.9105 66.5448C49.7063 65.5952 49.81 64.1908 49.0242 63.1977C48.8235 62.947 48.5025 62.8166 48.205 63.0005C47.9575 63.1509 47.8037 63.5656 48.0077 63.8197C48.0679 63.8966 48.1247 63.9735 48.1749 64.0537C48.2016 64.1006 48.2284 64.1474 48.2518 64.1942C48.2551 64.2009 48.2952 64.2978 48.2685 64.2276C48.3521 64.4349 48.3788 64.562 48.3855 64.7258C48.3889 64.8161 48.3855 64.9064 48.3788 64.9933C48.3889 64.8964 48.3554 65.087 48.3487 65.1237C48.2952 65.3377 48.2852 65.3678 48.1581 65.5785C48.1381 65.6119 48.1147 65.6454 48.0946 65.6788C48.1414 65.6086 48.0879 65.6855 48.0779 65.6989C48.021 65.7657 47.9609 65.8326 47.8973 65.8928C47.8806 65.9095 47.787 65.9898 47.8606 65.9329C47.8271 65.9597 47.7937 65.9831 47.7602 66.0065C47.6733 66.0633 47.583 66.1202 47.4894 66.1603C47.563 66.1269 47.466 66.167 47.456 66.1703C47.4058 66.1871 47.3556 66.2038 47.3055 66.2205C47.2553 66.2339 47.2052 66.2472 47.155 66.2606C47.1416 66.2606 47.038 66.2807 47.1283 66.2673C47.0447 66.2807 46.9611 66.284 46.8775 66.284C46.824 66.284 46.7738 66.284 46.7203 66.2807C46.6902 66.2807 46.6568 66.2773 46.6267 66.274C46.6702 66.2773 46.6735 66.274 46.6301 66.274C46.4462 66.2406 46.3191 66.2004 46.2054 66.1436C46.0616 66.0667 45.9279 65.9664 45.8643 65.8594C45.764 65.6955 45.7473 65.6621 45.6972 65.4481C45.6737 65.3478 45.6804 65.3645 45.6737 65.2341C45.6704 65.1137 45.6737 64.99 45.6871 64.8696C45.6804 64.9231 45.7005 64.8061 45.6972 64.8094C45.7072 64.7626 45.7139 64.7125 45.7239 64.6656C45.7473 64.5586 45.7707 64.4517 45.8042 64.348C45.8175 64.3079 45.8309 64.2644 45.8443 64.2243C45.8844 64.1072 45.8677 64.1607 45.8576 64.1875C45.9011 64.0872 45.958 63.9969 46.0081 63.8999C46.0817 63.7595 45.9647 63.9467 46.0215 63.8732C46.0482 63.8397 46.075 63.8063 46.1051 63.7762C46.1519 63.7261 46.1987 63.6792 46.2522 63.6391C46.1552 63.7194 46.3258 63.5956 46.3559 63.5756C46.386 63.5589 46.4127 63.5421 46.4428 63.5288C46.4662 63.5154 46.4863 63.5054 46.5097 63.4953C46.4528 63.5221 46.4428 63.5254 46.4829 63.5087C46.5699 63.4953 46.6568 63.4485 46.7437 63.4285C46.7772 63.4218 46.8073 63.4151 46.8407 63.4084C46.7337 63.4285 46.8273 63.4117 46.8808 63.4084C46.9644 63.4017 47.048 63.4017 47.1316 63.4084C47.1651 63.4084 47.1985 63.4117 47.2319 63.4151C47.0848 63.3984 47.252 63.4218 47.2721 63.4285C47.3556 63.4452 47.4359 63.4719 47.5161 63.4953C47.5362 63.502 47.6231 63.5254 47.5161 63.4953C47.563 63.5154 47.6098 63.5388 47.6532 63.5622C47.8438 63.6625 47.9508 63.7628 48.108 63.9501C48.3153 64.1975 48.7433 64.1507 48.9506 63.9334C49.1914 63.6826 49.1446 63.3382 48.9339 63.0907L48.9272 63.0774Z" fill="#2C2C2C"/>
<path d="M73.7612 72.654C73.7144 73.0285 73.5873 73.3963 73.3633 73.7407C73.0991 74.142 72.5909 74.0617 72.3534 73.7875C72.2097 73.627 72.1662 73.3963 72.32 73.1556C72.4872 72.8981 72.5674 72.6273 72.5775 72.3598C72.6143 71.584 72.0458 70.8417 71.26 70.5675C70.4943 70.3034 69.7152 70.4271 69.013 70.7581C68.585 70.9587 68.1871 71.2329 67.8427 71.5472C67.7658 71.6174 67.6689 71.6609 67.5719 71.681C67.1606 71.7746 66.6657 71.477 66.8363 70.9855C66.9934 70.5274 66.8931 69.9957 66.4785 69.7048C66.0772 69.4206 65.5021 69.5176 65.1611 69.8453C64.6093 70.3769 63.75 69.551 64.3017 69.016C65.0307 68.3138 66.1809 68.1199 67.0603 68.6616C67.5351 68.9525 67.8661 69.4306 68.0166 69.9556C68.1236 69.8921 68.2306 69.8319 68.341 69.775C68.7221 69.5811 69.1234 69.434 69.5347 69.3437C70.3138 69.1698 71.1296 69.21 71.9254 69.5544C72.748 69.9121 73.3733 70.6344 73.6408 71.4569C73.7645 71.8415 73.8113 72.2494 73.7612 72.654Z" fill="#2C2C2C"/>
<path d="M77.1482 74.3691C77.1583 74.319 77.1716 74.2688 77.1884 74.222C77.1683 74.2688 77.1516 74.319 77.1315 74.3658C77.1583 74.2989 77.195 74.2354 77.2385 74.1752C77.2084 74.2153 77.1783 74.2554 77.1482 74.2989C77.1984 74.2354 77.2519 74.1752 77.3154 74.125C77.2753 74.1551 77.2352 74.1886 77.195 74.222C77.2653 74.1652 77.3388 74.1217 77.4191 74.0849C77.3723 74.105 77.3255 74.1284 77.2786 74.1484C77.3522 74.115 77.4291 74.0949 77.5094 74.0816C77.4559 74.0883 77.4024 74.0983 77.3522 74.105C77.4325 74.0949 77.5127 74.0916 77.593 74.1016C77.5395 74.0949 77.486 74.0883 77.4325 74.0849C77.4993 74.0949 77.5595 74.1117 77.623 74.1351C77.5762 74.115 77.5261 74.0983 77.4793 74.0782C77.5461 74.105 77.6063 74.1418 77.6632 74.1819C77.623 74.1518 77.5829 74.1217 77.5395 74.0916C77.5963 74.1351 77.6465 74.1852 77.6933 74.2387C77.6598 74.1986 77.6297 74.1585 77.5963 74.1183C77.6498 74.1852 77.6933 74.2588 77.73 74.3357C77.71 74.2889 77.6866 74.2421 77.6665 74.1953C77.7 74.2755 77.7267 74.3558 77.7401 74.4393C77.7334 74.3858 77.7234 74.3323 77.7167 74.2822C77.73 74.3658 77.73 74.4494 77.7234 74.5363C77.73 74.4828 77.7367 74.4293 77.7401 74.3758C77.73 74.446 77.7133 74.5129 77.6866 74.5798C77.7066 74.533 77.7234 74.4828 77.7434 74.436C77.7434 74.4427 77.7367 74.4494 77.7334 74.4561C77.6665 74.6065 77.6331 74.7537 77.6832 74.9175C77.7234 75.0546 77.8337 75.2017 77.9641 75.2686C78.1045 75.3388 78.2717 75.3723 78.4255 75.3188C78.5626 75.2719 78.7165 75.1783 78.7766 75.0379C78.8602 74.8406 78.9037 74.6834 78.9204 74.4694C78.9304 74.3223 78.907 74.1685 78.8703 74.0281C78.8034 73.7472 78.6329 73.463 78.4155 73.2724C78.1514 73.0417 77.8337 72.9113 77.4826 72.9046C77.185 72.8979 76.8573 73.0015 76.6199 73.1754C76.3156 73.3961 76.0682 73.7037 75.9946 74.0816C75.9645 74.2387 75.9779 74.3992 76.0615 74.5397C76.1351 74.6634 76.2789 74.7771 76.4226 74.8072C76.7236 74.8707 77.0847 74.7035 77.1482 74.3758V74.3691Z" fill="#2C2C2C"/>
<path d="M46.6701 74.6199C46.3691 74.1217 45.8207 73.8274 45.2389 74.0348C44.7106 74.222 44.6538 74.6768 44.3094 75.0345C43.9984 75.3555 43.5269 75.4358 43.129 75.2318C42.7211 75.0245 42.5439 74.5597 42.1527 74.339C41.9052 74.2019 41.6544 74.1485 41.4037 74.1652C41.0726 74.1819 40.7416 74.309 40.4306 74.4929C39.9692 74.7637 39.5546 75.1549 39.2436 75.4826C38.4478 76.3185 37.8259 77.3083 37.4045 78.3816C37.3577 78.4987 37.2775 78.6023 37.1772 78.6792C36.913 78.8865 36.5151 78.9066 36.3178 78.5421C36.2777 78.4652 36.2342 78.3917 36.1874 78.3181C36.0035 78.0305 35.7728 77.7664 35.4752 77.6159C35.3682 77.5591 35.2512 77.5189 35.1275 77.4955C35.1141 77.4922 35.0974 77.4922 35.084 77.4888C34.539 77.4153 34.0407 77.7898 34.0608 78.3448C34.0608 78.3582 34.0608 78.3749 34.0641 78.3917C34.1143 79.0337 33.2851 79.1507 32.9841 78.7193C32.9206 78.6391 32.8805 78.5354 32.8704 78.4117C32.7902 77.4387 33.5024 76.5827 34.4219 76.3486C34.5055 76.3252 34.5891 76.3085 34.6761 76.2985C34.987 76.2617 35.288 76.2918 35.5722 76.3754C35.9968 76.5024 36.3814 76.7532 36.7024 77.0709C37.4647 75.5562 38.7086 73.8275 40.2534 73.2155C40.5778 73.0851 40.9155 73.0049 41.2632 72.9882C41.5174 72.9715 41.7815 72.9915 42.049 73.0484C42.7345 73.1921 43.0555 73.59 43.537 74.0348C43.557 73.998 43.5771 73.9612 43.6005 73.9244C43.6774 73.804 43.7643 73.6803 43.858 73.5733C44.0619 73.3493 44.3127 73.1587 44.5836 73.025C45.7238 72.4532 47.0479 72.938 47.6899 73.998C48.0878 74.6567 47.068 75.2753 46.6701 74.6199Z" fill="#2C2C2C"/>
<path d="M48.5696 69.875C49.3353 69.8617 49.3152 68.6679 48.5462 68.6813C47.7771 68.6947 47.8005 69.8884 48.5696 69.875Z" fill="#2C2C2C"/>
<path d="M44.3728 70.1058C45.1385 70.0925 45.1185 68.8988 44.3494 68.9121C43.5803 68.9255 43.6038 70.1192 44.3728 70.1058Z" fill="#2C2C2C"/>
<path d="M42.7546 66.5583C42.4771 66.5617 42.2965 66.4112 42.2162 66.2139C42.0892 65.8996 42.2096 65.475 42.5874 65.3847C42.6309 65.3713 42.681 65.3646 42.7312 65.3646C43.5002 65.3512 43.5203 66.545 42.7546 66.5583Z" fill="#2C2C2C"/>
<path d="M31.2757 69.3601C31.1821 69.4871 31.035 69.5741 30.831 69.5774C30.062 69.5908 30.0419 68.4004 30.8076 68.3837C30.8578 68.3837 30.9012 68.387 30.9447 68.3971C31.3961 68.4807 31.5098 69.0458 31.2757 69.3601Z" fill="#2C2C2C"/>
<path d="M27.2634 70.2665C28.0292 70.2531 28.0091 69.0594 27.24 69.0728C26.471 69.0861 26.4944 70.2799 27.2634 70.2665Z" fill="#2C2C2C"/>
<path d="M29.1961 73.8106C29.9618 73.7972 29.9417 72.6035 29.1726 72.6168C28.4036 72.6302 28.427 73.8239 29.1961 73.8106Z" fill="#2C2C2C"/>
<path d="M71.6379 63.6925C71.3938 63.6925 71.2266 63.5788 71.1363 63.4183C70.9825 63.1508 71.0393 62.7596 71.3102 62.5857C71.3904 62.5322 71.4941 62.5021 71.6178 62.4988C72.3869 62.4854 72.4069 63.6758 71.6379 63.6925Z" fill="#2C2C2C"/>
<path d="M72.9421 66.936C73.7079 66.9226 73.6878 65.7289 72.9187 65.7423C72.1497 65.7556 72.1731 66.9494 72.9421 66.936Z" fill="#2C2C2C"/>
<path d="M68.9797 62.9637C69.7455 62.9503 69.7254 61.7566 68.9563 61.7699C68.1873 61.7833 68.2107 62.977 68.9797 62.9637Z" fill="#2C2C2C"/>
<path d="M68.5754 66.3942C69.3412 66.3809 69.3211 65.1871 68.552 65.2005C67.783 65.2139 67.8064 66.4076 68.5754 66.3942Z" fill="#2C2C2C"/>
<path d="M7.28089 75.7635C9.4142 84.1998 11.9019 92.5524 14.7341 100.781C14.9815 101.504 16.1284 101.173 15.8777 100.444C13.0488 92.2147 10.5611 83.8621 8.42445 75.4258C8.2372 74.6835 7.09364 75.0179 7.28089 75.7635Z" fill="#2C2C2C"/>
<path d="M92.9913 74.7371C91.6104 83.4709 88.5943 91.8403 86.6951 100.46C86.5312 101.209 87.6848 101.507 87.852 100.755C89.7513 92.1345 92.7673 83.7652 94.1483 75.0313C94.2687 74.279 93.1117 73.978 92.9913 74.7371Z" fill="#2C2C2C"/>
<path d="M15.0154 101.132C19.0881 103.155 23.552 103.978 28.036 104.496C32.8041 105.048 37.5991 105.449 42.394 105.71C52.1176 106.242 61.9114 106.111 71.5614 104.727C76.9382 103.954 82.2514 102.797 87.4409 101.179C88.1732 100.952 87.8388 99.8048 87.1032 100.036C68.8196 105.743 49.4091 105.472 30.5404 103.577C25.4379 103.062 20.245 102.403 15.5972 100.092C14.9118 99.7513 14.3266 100.791 15.0154 101.132Z" fill="#2C2C2C"/>
<path d="M11.8752 89.7873C21.9666 92.0143 32.2486 93.3651 42.5774 93.7898C52.8394 94.2144 63.0913 93.5591 73.3198 92.7666C76.2422 92.5392 79.1881 92.3353 82.0871 91.9006C84.8624 91.4826 87.5675 90.7135 90.2258 89.8275C90.9514 89.5867 90.617 88.4398 89.888 88.6839C87.5106 89.4764 85.0931 90.1785 82.6221 90.6132C80.0608 91.0646 77.4326 91.2352 74.8412 91.4492C69.8557 91.8605 64.8568 92.1848 59.8579 92.4556C49.6528 93.0107 39.4176 92.7432 29.266 91.5361C23.5215 90.854 17.817 89.8776 12.1694 88.6304C11.4204 88.4665 11.1229 89.6201 11.8752 89.7873Z" fill="#2C2C2C"/>
<path d="M92.6369 80.4183C94.155 80.3347 95.8569 80.308 97.1777 81.1807C98.3346 81.9431 98.99 83.3408 98.3246 84.6415C96.8601 87.5204 93.1585 88.0588 90.303 88.4467C89.5506 88.547 89.564 89.7407 90.3264 89.6404C93.1686 89.2558 96.2448 88.7911 98.3413 86.631C99.2843 85.6613 99.9864 84.3573 99.7524 82.9729C99.5384 81.709 98.6256 80.619 97.5255 80.0004C96.0442 79.1644 94.262 79.1377 92.6102 79.228C91.8444 79.2714 91.8645 80.4618 92.6336 80.4217L92.6369 80.4183Z" fill="#2C2C2C"/>
<path d="M9.4276 81.6584C7.59857 81.6484 5.85983 82.0597 4.19464 82.8053C2.86383 83.4005 1.4929 84.3702 1.10503 85.8582C0.683714 87.4665 1.62999 89.0214 2.7769 90.0713C4.02746 91.2182 5.58898 92.0474 7.22742 92.4754C8.15698 92.7195 9.12332 92.8165 10.0796 92.8533C10.8721 92.8834 11.7448 92.8968 12.5072 92.6493C13.2361 92.4119 12.9017 91.265 12.1695 91.5058C11.4506 91.7398 10.6247 91.6897 9.88235 91.6562C8.99626 91.6161 8.12354 91.5024 7.27089 91.255C5.57561 90.7635 3.75327 89.7436 2.75015 88.2456C2.28202 87.5468 2.01118 86.6975 2.3489 85.8816C2.65318 85.1527 3.32193 84.631 3.98733 84.2432C5.62911 83.2868 7.56179 82.8421 9.45101 82.8522C10.2201 82.8555 10.1967 81.6651 9.4276 81.6584Z" fill="#2C2C2C"/>
<path d="M81.7259 98.0462C83.1403 94.2644 84.421 90.4359 85.5612 86.5605C85.7785 85.8215 84.6216 85.5306 84.4043 86.2662C83.2641 90.1383 81.9867 93.9702 80.569 97.752C80.2982 98.4709 81.4584 98.7584 81.7259 98.0462Z" fill="#2C2C2C"/>
<path d="M86.277 84.347C86.374 83.929 86.4709 83.5144 86.5679 83.0964C86.6047 82.9426 86.5813 82.7721 86.501 82.6383C86.4275 82.5146 86.2837 82.4009 86.1399 82.3708C85.9861 82.3374 85.8156 82.3508 85.6818 82.4411C85.5547 82.528 85.4511 82.6484 85.4143 82.8022C85.3173 83.2201 85.2204 83.6348 85.1234 84.0527C85.0866 84.2065 85.11 84.3771 85.1903 84.5108C85.2638 84.6345 85.4076 84.7482 85.5514 84.7783C85.7052 84.8118 85.8757 84.7984 86.0095 84.7081C86.1366 84.6212 86.2402 84.5008 86.277 84.347Z" fill="#2C2C2C"/>
<path d="M19.5862 98.3539C18.854 96.3209 18.232 94.2545 17.7204 92.1546C17.5399 91.4089 16.3963 91.7467 16.5769 92.4923C17.0851 94.5922 17.7104 96.6586 18.4427 98.6916C18.7002 99.4105 19.8471 99.0795 19.5862 98.3539Z" fill="#2C2C2C"/>
</svg>
