<svg width="60" height="47" viewBox="0 0 60 47" fill="none" xmlns="http://www.w3.org/2000/svg">
<g filter="url(#filter0_d_109_205)">
<path d="M6 2.33871V0.5C5.46957 0.5 4.96086 0.69372 4.58579 1.03855C4.21071 1.38337 4 1.85105 4 2.33871H6ZM54 2.33871H56C56 1.85105 55.7893 1.38337 55.4142 1.03855C55.0391 0.69372 54.5304 0.5 54 0.5V2.33871ZM6 4.17742H54V0.5H6V4.17742ZM52 2.33871V31.7581H56V2.33871H52ZM48.6667 34.8226H11.3333V38.5H48.6667V34.8226ZM8 31.7581V2.33871H4V31.7581H8ZM11.3333 34.8226C9.49333 34.8226 8 33.4497 8 31.7581H4C4 33.5461 4.77262 35.261 6.14788 36.5253C7.52315 37.7897 9.38841 38.5 11.3333 38.5V34.8226ZM52 31.7581C52 33.4497 50.5067 34.8226 48.6667 34.8226V38.5C50.6116 38.5 52.4769 37.7897 53.8521 36.5253C55.2274 35.261 56 33.5461 56 31.7581H52Z" fill="black"/>
<path d="M6.00098 2.33936L30.001 24.4039L54.001 2.33936" stroke="black" stroke-width="1.5" stroke-linecap="round" stroke-linejoin="round"/>
</g>
<defs>
<filter id="filter0_d_109_205" x="0" y="0.5" width="60" height="46" filterUnits="userSpaceOnUse" color-interpolation-filters="sRGB">
<feFlood flood-opacity="0" result="BackgroundImageFix"/>
<feColorMatrix in="SourceAlpha" type="matrix" values="0 0 0 0 0 0 0 0 0 0 0 0 0 0 0 0 0 0 127 0" result="hardAlpha"/>
<feOffset dy="4"/>
<feGaussianBlur stdDeviation="2"/>
<feComposite in2="hardAlpha" operator="out"/>
<feColorMatrix type="matrix" values="0 0 0 0 0 0 0 0 0 0 0 0 0 0 0 0 0 0 0.25 0"/>
<feBlend mode="normal" in2="BackgroundImageFix" result="effect1_dropShadow_109_205"/>
<feBlend mode="normal" in="SourceGraphic" in2="effect1_dropShadow_109_205" result="shape"/>
</filter>
</defs>
</svg>
