<svg width="56" height="48" viewBox="0 0 56 48" fill="none" xmlns="http://www.w3.org/2000/svg">
<path d="M52.4335 0.5H3.06198C1.3709 0.5 0 1.64865 0 3.06558V44.4331C0 45.85 1.3709 46.9986 3.06198 46.9986H52.4335C54.1246 46.9986 55.4955 45.85 55.4955 44.4331V3.06558C55.4955 1.64865 54.1246 0.5 52.4335 0.5Z" fill="#3D5A98"/>
<path d="M40.0155 47.0702V28.2115H47.5688L48.6983 20.8622H40.0155V16.1712C40.0155 14.0438 40.7227 12.5912 44.3618 12.5912H49.0077V6.00735C46.758 5.8109 44.4972 5.71749 42.2353 5.72754C35.5464 5.72754 30.9398 9.14293 30.9398 15.4429V20.8622H23.3865V28.2115H30.9398V47.0702H40.0155Z" fill="white"/>
</svg>
