<svg width="58" height="46" viewBox="0 0 58 46" fill="none" xmlns="http://www.w3.org/2000/svg">
<path d="M44.23 0H13.5398C6.06198 0 0 4.77446 0 10.6641V34.8359C0 40.7255 6.06198 45.5 13.5398 45.5H44.23C51.7079 45.5 57.7699 40.7255 57.7699 34.8359V10.6641C57.7699 4.77446 51.7079 0 44.23 0Z" fill="url(#paint0_radial_110_7513)"/>
<path d="M44.23 0H13.5398C6.06198 0 0 4.77446 0 10.6641V34.8359C0 40.7255 6.06198 45.5 13.5398 45.5H44.23C51.7079 45.5 57.7699 40.7255 57.7699 34.8359V10.6641C57.7699 4.77446 51.7079 0 44.23 0Z" fill="url(#paint1_radial_110_7513)"/>
<path d="M28.8875 4.97656C22.7589 4.97656 21.9896 4.99771 19.5827 5.08391C17.1803 5.17065 15.5404 5.47013 14.1056 5.90967C12.6212 6.3636 11.3622 6.97092 10.108 7.95912C8.85262 8.94715 8.08152 9.93873 7.50337 11.1073C6.94373 12.2377 6.56303 13.5299 6.45494 15.4211C6.3473 17.317 6.31909 17.9231 6.31909 22.7502C6.31909 27.5773 6.34617 28.1812 6.45539 30.0769C6.56597 31.9691 6.94621 33.2607 7.50383 34.3907C8.08062 35.5598 8.85171 36.5514 10.1064 37.5393C11.3604 38.528 12.6194 39.1368 14.1027 39.5907C15.5386 40.0302 17.1787 40.3297 19.5807 40.4164C21.9878 40.5026 22.7564 40.5238 28.8848 40.5238C35.014 40.5238 35.7808 40.5026 38.1877 40.4164C40.5902 40.3297 42.2319 40.0302 43.6678 39.5907C45.1515 39.1368 46.4087 38.528 47.6624 37.5393C48.9178 36.5514 49.6887 35.5599 50.2671 34.3912C50.8217 33.2607 51.2027 31.9687 51.3155 30.0773C51.4236 28.1816 51.4518 27.5773 51.4518 22.7502C51.4518 17.9231 51.4236 17.3174 51.3155 15.4215C51.2027 13.5293 50.8217 12.2379 50.2671 11.1079C49.6887 9.93873 48.9178 8.94715 47.6624 7.95912C46.4073 6.97056 45.1519 6.36325 43.6664 5.90985C42.2278 5.47013 40.587 5.17047 38.1846 5.08391C35.7774 4.99771 35.0111 4.97656 28.8805 4.97656H28.8875ZM26.863 8.17951C27.464 8.1788 28.1344 8.17951 28.8875 8.17951C34.9129 8.17951 35.6269 8.19658 38.0063 8.28171C40.2065 8.36098 41.4007 8.65051 42.1962 8.89383C43.2494 9.21588 44.0002 9.60103 44.7895 10.2233C45.5793 10.8454 46.0681 11.4377 46.4782 12.2672C46.7871 12.8929 47.1552 13.8334 47.2554 15.5663C47.3634 17.44 47.3869 18.0027 47.3869 22.7461C47.3869 27.4895 47.3634 28.0523 47.2554 29.9258C47.1547 31.6588 46.7871 32.5993 46.4782 33.2251C46.0693 34.0546 45.5793 34.6452 44.7895 35.2669C43.9997 35.889 43.2498 36.274 42.1962 36.5962C41.4016 36.8406 40.2065 37.1294 38.0063 37.2087C35.6274 37.2938 34.9129 37.3123 28.8875 37.3123C22.8618 37.3123 22.1476 37.2938 19.7689 37.2087C17.5686 37.1287 16.3744 36.8392 15.5783 36.5959C14.5253 36.2736 13.773 35.8887 12.9832 35.2666C12.1933 34.6445 11.7046 34.0536 11.2945 33.2237C10.9856 32.5979 10.6175 31.6573 10.5173 29.9244C10.4092 28.0507 10.3876 27.488 10.3876 22.7416C10.3876 17.9954 10.4092 17.4356 10.5173 15.5619C10.618 13.829 10.9856 12.8884 11.2945 12.2619C11.7036 11.4324 12.1933 10.84 12.9834 10.2179C13.7732 9.59588 14.5253 9.21073 15.5785 8.88796C16.374 8.64358 17.5686 8.35476 19.7689 8.27513C21.8506 8.20102 22.6574 8.1788 26.863 8.17507V8.17951ZM40.9334 11.1306C39.4384 11.1306 38.2254 12.085 38.2254 13.2627C38.2254 14.4402 39.4384 15.3955 40.9334 15.3955C42.4284 15.3955 43.6413 14.4402 43.6413 13.2627C43.6413 12.0852 42.4284 11.1299 40.9334 11.1299V11.1306ZM28.8875 13.6226C22.4877 13.6226 17.2987 17.7095 17.2987 22.7502C17.2987 27.7909 22.4877 31.8758 28.8875 31.8758C35.2875 31.8758 40.4746 27.7909 40.4746 22.7502C40.4746 17.7096 35.2871 13.6226 28.887 13.6226H28.8875ZM28.8875 16.8256C33.0417 16.8256 36.4097 19.4779 36.4097 22.7502C36.4097 26.0221 33.0417 28.6748 28.8875 28.6748C24.733 28.6748 21.3654 26.0221 21.3654 22.7502C21.3654 19.4779 24.733 16.8256 28.8875 16.8256Z" fill="white"/>
<defs>
<radialGradient id="paint0_radial_110_7513" cx="0" cy="0" r="1" gradientUnits="userSpaceOnUse" gradientTransform="translate(15.3451 49.0044) rotate(-90) scale(45.0939 53.2509)">
<stop stop-color="#FFDD55"/>
<stop offset="0.1" stop-color="#FFDD55"/>
<stop offset="0.5" stop-color="#FF543E"/>
<stop offset="1" stop-color="#C837AB"/>
</radialGradient>
<radialGradient id="paint1_radial_110_7513" cx="0" cy="0" r="1" gradientUnits="userSpaceOnUse" gradientTransform="translate(-9.67668 3.2776) rotate(75.7406) scale(20.3935 104.273)">
<stop stop-color="#3771C8"/>
<stop offset="0.128" stop-color="#3771C8"/>
<stop offset="1" stop-color="#6600FF" stop-opacity="0"/>
</radialGradient>
</defs>
</svg>
