<svg width="53" height="41" viewBox="0 0 53 41" fill="none" xmlns="http://www.w3.org/2000/svg">
<path d="M49.6902 27.3919L37.3936 23.1698L37.3596 23.1578C36.7213 22.9486 36.0249 22.8646 35.3335 22.9135C34.6422 22.9624 33.9776 23.1426 33.4 23.4378C33.332 23.4722 33.2666 23.5096 33.2042 23.5498L26.851 27.6999C22.8261 26.2018 18.6707 23.0418 16.7157 19.9978L22.1396 15.0557C22.1918 15.0057 22.2414 14.9557 22.2884 14.9017C22.6654 14.4603 22.8941 13.9544 22.9542 13.4289C23.0144 12.9034 22.904 12.3746 22.633 11.8897V11.8657L17.1072 2.42761C16.7489 1.79414 16.1329 1.26643 15.351 0.923276C14.5692 0.58012 13.6635 0.439917 12.7691 0.523596C9.23218 0.880212 5.98565 2.21115 3.63584 4.26782C1.28603 6.3245 -0.00637129 8.96626 2.36187e-05 11.6997C2.36187e-05 27.5799 16.8618 40.5 37.5867 40.5C41.1541 40.5049 44.6018 39.5146 47.2859 37.7141C49.9701 35.9136 51.7071 33.426 52.1725 30.7159C52.2819 30.0308 52.0993 29.337 51.6519 28.7379C51.2046 28.1389 50.5164 27.6667 49.6902 27.3919ZM37.5867 37.2999C28.7287 37.2925 20.2363 34.593 13.9727 29.7936C7.70912 24.9943 4.186 18.487 4.17632 11.6997C4.1665 9.74666 5.0848 7.85766 6.75972 6.38547C8.43464 4.91327 10.7517 3.95856 13.2781 3.69963C13.277 3.70761 13.277 3.71565 13.2781 3.72363L18.7594 13.1237L13.3642 18.0718C13.3094 18.12 13.2597 18.1715 13.2154 18.2258C12.8226 18.6876 12.5922 19.2194 12.5465 19.7695C12.5007 20.3196 12.6412 20.8695 12.9544 21.3658C15.3192 25.0718 20.1924 28.7779 25.0813 30.5879C25.7338 30.8256 26.4555 30.9295 27.1761 30.8896C27.8967 30.8496 28.5914 30.6671 29.1924 30.3599C29.2594 30.3253 29.3239 30.2879 29.3855 30.2479L35.7309 26.0998L47.9988 30.3099H48.0275C47.6937 32.2484 46.4496 34.0274 44.5279 35.3139C42.6062 36.6005 40.1386 37.3065 37.5867 37.2999Z" fill="black"/>
</svg>
